Coordinates
version=1
nRows=22
nColumns=24
inDegrees=yes

Units are S.I. units (second, meters, Newtons, ...)
Angles are in degrees.

endheader
time	pelvis_tilt	pelvis_list	pelvis_rotation	pelvis_tx	pelvis_ty	pelvis_tz	hip_flexion_r	hip_adduction_r	hip_rotation_r	knee_angle_r	ankle_angle_r	subtalar_angle_r	mtp_angle_r	hip_flexion_l	hip_adduction_l	hip_rotation_l	knee_angle_l	ankle_angle_l	subtalar_angle_l	mtp_angle_l	lumbar_extension	lumbar_bending	lumbar_rotation
      1.33333333	      2.01195065	      5.94276445	     -4.87945874	      0.20929176	      1.07819139	      0.31598456	     15.55523307	     -6.36645585	      3.36280789	    -67.12152068	     -6.01855403	    -14.94167774	      8.25764846	      4.61201964	     10.70495818	     -3.14380998	     -5.07346378	     -3.35947085	     -7.78608198	     -3.15051369	      0.76887790	     -2.63056973	      1.81495094
      1.33750000	      2.04088599	      6.00521756	     -4.86416512	      0.21420279	      1.07862814	      0.31581005	     16.14751245	     -6.33493651	      3.58840040	    -67.01831553	     -5.63992577	    -14.98904007	      8.20828483	      4.22654708	     10.81750736	     -3.05587899	     -4.94101836	     -3.23383114	     -7.68397184	     -3.15449449	      0.70894191	     -2.63917112	      1.76561104
      1.34166667	      2.05695082	      6.04957061	     -4.84666449	      0.21912913	      1.07905174	      0.31574339	     16.73092693	     -6.26667543	      3.81854223	    -66.84798781	     -5.14007054	    -15.02780368	      8.15502472	      3.85402435	     10.89763504	     -3.00158083	     -4.82173428	     -3.05630772	     -7.60606543	     -3.15993206	      0.64764273	     -2.69262745	      1.71443942
      1.34583333	      2.05921290	      6.07773488	     -4.79403073	      0.22407524	      1.07946540	      0.31575455	     17.29562303	     -6.17207476	      4.01964055	    -66.60996038	     -4.55104570	    -14.94683397	      8.06912399	      3.50589727	     10.94995886	     -3.01116465	     -4.73496002	     -2.83832053	     -7.51748377	     -3.17353360	      0.60411169	     -2.79267790	      1.64883526
      1.35000000	      2.08362191	      6.12071334	     -4.76172401	      0.22899925	      1.07986987	      0.31570030	     17.83185360	     -6.10154559	      4.23799006	    -66.31517183	     -4.08166902	    -14.83637604	      7.97621779	      3.12149245	     11.03007499	     -2.94696043	     -4.61165612	     -2.66622208	     -7.41585665	     -3.19161819	      0.54289756	     -2.84616433	      1.57632682
      1.35416667	      2.11198368	      6.17384323	     -4.72974199	      0.23392912	      1.08025529	      0.31561026	     18.35091068	     -6.04671235	      4.45187534	    -65.95423576	     -3.79922686	    -14.81615899	      7.93283297	      2.72528749	     11.12653544	     -2.83338480	     -4.46699446	     -2.56834469	     -7.34336838	     -3.20011671	      0.48514237	     -2.86023718	      1.53031958
      1.35833333	      2.14299655	      6.21433076	     -4.69663058	      0.23884376	      1.08062536	      0.31559525	     18.84688437	     -5.96768426	      4.66571766	    -65.53971859	     -3.36119240	    -14.76800812	      7.88165187	      2.32825640	     11.20183974	     -2.74066845	     -4.33119840	     -2.39659982	     -7.29323747	     -3.21147774	      0.42288272	     -2.91974221	      1.47505733
      1.36250000	      2.18687327	      6.25079262	     -4.65155003	      0.24379462	      1.08101044	      0.31558518	     19.30134751	     -5.88858514	      4.86532496	    -65.05992137	     -2.94885152	    -14.66455139	      7.82721813	      1.91074908	     11.27490245	     -2.65240847	     -4.19530668	     -2.23870269	     -7.24353652	     -3.22604088	      0.34438101	     -2.97959635	      1.41103051
      1.36666667	      2.21777058	      6.29061983	     -4.60295798	      0.24872669	      1.08134749	      0.31557431	     19.75634052	     -5.81247252	      5.06034591	    -64.52316310	     -2.59257236	    -14.56276030	      7.77776029	      1.50825225	     11.35035001	     -2.55406204	     -4.05286086	     -2.09999849	     -7.19915803	     -3.24081958	      0.26822092	     -3.03544871	      1.34853881
      1.37083333	      2.20805124	      6.30958884	     -4.51477689	      0.25369196	      1.08163449	      0.31565249	     20.21697724	     -5.70601278	      5.22287331	    -63.90083760	     -2.42677950	    -14.53853738	      7.76118416	      1.15390144	     11.38740025	     -2.49482793	     -3.93670355	     -2.04131040	     -7.17996004	     -3.24579945	      0.17659478	     -3.08970842	      1.32364984
      1.37500000	      2.27501454	      6.36885513	     -4.49841834	      0.25864599	      1.08195061	      0.31560686	     20.60688298	     -5.65745194	      5.43469693	    -63.26840666	     -2.00065407	    -14.45800728	      7.71980743	      0.69396524	     11.49691023	     -2.34520481	     -3.75160136	     -1.85299994	     -7.15211150	     -3.25947686	      0.16236559	     -3.15444843	      1.25533042
      1.37916667	      2.25145740	      6.39645294	     -4.41079017	      0.26361266	      1.08216251	      0.31571724	     21.04818706	     -5.55884313	      5.59432036	    -62.54086873	     -1.82521402	    -14.42326557	      7.70277716	      0.35048714	     11.54110755	     -2.28202752	     -3.62575977	     -1.78698780	     -7.14155957	     -3.26570051	      0.05704683	     -3.21878464	      1.22454065
      1.38333333	      2.33748909	      6.43698888	     -4.33636087	      0.26855216	      1.08248179	      0.31565687	     21.35814245	     -5.51008561	      5.73689532	    -61.79259289	     -1.25626111	    -14.19144574	      7.61523411	     -0.12644796	     11.62852211	     -2.13113224	     -3.46863370	     -1.51763116	     -7.18200052	     -3.30499134	     -0.05494914	     -3.30311530	      1.06160573
      1.38750000	      2.31973219	      6.48663133	     -4.28200815	      0.27352349	      1.08261819	      0.31576272	     21.77030896	     -5.43561373	      5.91946599	    -60.96881271	     -1.15641059	    -14.18503297	      7.59867541	     -0.48771335	     11.70401332	     -2.03414353	     -3.30634192	     -1.49269168	     -7.15149333	     -3.31185246	     -0.11756913	     -3.36621639	      1.03609162
      1.39166667	      2.36724550	      6.53958648	     -4.24876720	      0.27853858	      1.08282041	      0.31579184	     22.09049443	     -5.38237950	      6.09532104	    -60.09521474	     -0.95684355	    -14.18167254	      7.56307100	     -0.94046233	     11.79894120	     -1.88144295	     -3.10369321	     -1.38553034	     -7.15191994	     -3.32800247	     -0.09991499	     -3.44670784	      0.97864075
      1.39583333	      2.40365016	      6.57637172	     -4.18533194	      0.28354409	      1.08300520	      0.31585051	     22.39003782	     -5.31645198	      6.23620715	    -59.15770421	     -0.74991964	    -14.18867488	      7.51344647	     -1.37753141	     11.86930694	     -1.73267380	     -2.92102716	     -1.25219797	     -7.19548036	     -3.35285236	     -0.15988027	     -3.52121659	      0.88828457
      1.40000000	      2.37237351	      6.62978703	     -4.11246465	      0.28850898	      1.08304405	      0.31597896	     22.75245923	     -5.25668947	      6.38546529	    -58.17459421	     -0.64257734	    -14.21207759	      7.49252541	     -1.72360873	     11.94323168	     -1.65095024	     -2.76628696	     -1.19943716	     -7.20331519	     -3.36304524	     -0.24649792	     -3.60005757	      0.85229545
      1.40416667	      2.35473781	      6.68038221	     -4.05936992	      0.29354364	      1.08308247	      0.31610182	     23.07490431	     -5.19723235	      6.53198834	    -57.13604446	     -0.53488381	    -14.25895660	      7.47113367	     -2.10226436	     12.02032095	     -1.54057936	     -2.57805241	     -1.12505781	     -7.21621193	     -3.37312826	     -0.27762614	     -3.69141955	      0.81679533
      1.40833333	      2.33980436	      6.73681439	     -4.00522232	      0.29859209	      1.08309869	      0.31622116	     23.37114171	     -5.15017282	      6.67068213	    -56.04657252	     -0.44270345	    -14.32879389	      7.44849632	     -2.48677772	     12.10455985	     -1.42336000	     -2.39306822	     -1.03991783	     -7.23996668	     -3.38384766	     -0.28984819	     -3.78374899	      0.77775198
      1.41250000	      2.49812656	      6.73346526	     -3.86397669	      0.30358333	      1.08341813	      0.31603996	     23.42008632	     -5.12060416	      6.63749880	    -54.85405487	     -0.49561305	    -14.72685293	      7.29744829	     -3.08489048	     12.14648512	     -1.08313775	     -2.17795712	     -0.80940903	     -7.48736694	     -3.47093862	     -0.48268589	     -3.76110570	      0.43451496
      1.41666667	      2.44408705	      6.80977179	     -3.82331541	      0.30859689	      1.08329977	      0.31623442	     23.72775178	     -5.08729692	      6.79148988	    -53.67441635	     -0.44206856	    -14.77381606	      7.27469368	     -3.41707165	     12.24327308	     -1.01747194	     -2.00098959	     -0.80460377	     -7.47756108	     -3.48380580	     -0.49305012	     -3.90153905	      0.41803609
      1.42083333	      2.39045217	      6.87312230	     -3.78816882	      0.31365544	      1.08316047	      0.31640640	     24.00807230	     -5.04681599	      6.92030579	    -52.43467009	     -0.40914860	    -14.85909762	      7.25191745	     -3.76068245	     12.32853091	     -0.93863912	     -1.80091690	     -0.76250046	     -7.48552659	     -3.49561448	     -0.48058094	     -4.02900729	      0.39947703
